# xmcd
#
# Track frame offsets:
# 150
# 16162
# 29905
# 47345
# 63050
# 79475
# 95330
# 116420
# 129415
# 144220
#
# Disc length: 2105 seconds
#
#
# Revision: 3
# Processed by: cddbd v1.4PL0 Copyright (c) Steve Scherf et al.
# Submitted via: FreeRIP 2.40 
#
DISCID=7808370a
DTITLE=Marty Raybon - Marty Raybon
DYEAR=1995
DGENRE=Christian
TTITLE0=Master of the Wood
TTITLE1=Show 'Em Your Sermon
TTITLE2=Peace of Loving You
TTITLE3=Get Up In Jesus' Name
TTITLE4=Drive Another Nail
TTITLE5=Daddy Talks To Jesus
TTITLE6=Take Jesus As Your Lawyer
TTITLE7=What Have I Done To Deserve This
TTITLE8=Harvest Wind
TTITLE9=When He Reigns
EXTD=
EXTT0=
EXTT1=
EXTT2=
EXTT3=
EXTT4=
EXTT5=
EXTT6=
EXTT7=
EXTT8=
EXTT9=
PLAYORDER=
